osim_states
version=1
nRows=4
nColumns=185
inDegrees=yes

# SIMM Motion File Header:
name osim_states
datacolumns 185
datarows 4
otherdata 1
range 0.07175990 0.07219367
endheader
time	platform_rx	platform_ry	platform_rz	platform_ty	pelvis_tilt	pelvis_list	pelvis_rotation	pelvis_tx	pelvis_ty	pelvis_tz	hip_flexion_r	hip_adduction_r	hip_rotation_r	knee_angle_r	patella_r_constrained_knee_angle	ankle_angle_r	subtalar_angle_r	mtp_angle_r	hip_flexion_l	hip_adduction_l	hip_rotation_l	knee_angle_l	patella_l_constrained_knee_angle	ankle_angle_l	subtalar_angle_l	mtp_angle_l	lumbar_extension	lumbar_bending	lumbar_rotation	arm_flex_r	arm_add_r	arm_rot_r	elbow_flex_r	pro_sup_r	wrist_flex_r	wrist_dev_r	arm_flex_l	arm_add_l	arm_rot_l	elbow_flex_l	pro_sup_l	wrist_flex_l	wrist_dev_l	platform_rx_u	platform_ry_u	platform_rz_u	platform_ty_u	pelvis_tilt_u	pelvis_list_u	pelvis_rotation_u	pelvis_tx_u	pelvis_ty_u	pelvis_tz_u	hip_flexion_r_u	hip_adduction_r_u	hip_rotation_r_u	knee_angle_r_u	patella_r_constrained_knee_angle_u	ankle_angle_r_u	subtalar_angle_r_u	mtp_angle_r_u	hip_flexion_l_u	hip_adduction_l_u	hip_rotation_l_u	knee_angle_l_u	patella_l_constrained_knee_angle_u	ankle_angle_l_u	subtalar_angle_l_u	mtp_angle_l_u	lumbar_extension_u	lumbar_bending_u	lumbar_rotation_u	arm_flex_r_u	arm_add_r_u	arm_rot_r_u	elbow_flex_r_u	pro_sup_r_u	wrist_flex_r_u	wrist_dev_r_u	arm_flex_l_u	arm_add_l_u	arm_rot_l_u	elbow_flex_l_u	pro_sup_l_u	wrist_flex_l_u	wrist_dev_l_u	glut_med1_r.activation	glut_med1_r.fiber_length	glut_med2_r.activation	glut_med2_r.fiber_length	glut_med3_r.activation	glut_med3_r.fiber_length	glut_min1_r.activation	glut_min1_r.fiber_length	glut_min2_r.activation	glut_min2_r.fiber_length	glut_min3_r.activation	glut_min3_r.fiber_length	semimem_r.activation	semimem_r.fiber_length	semiten_r.activation	semiten_r.fiber_length	bifemlh_r.activation	bifemlh_r.fiber_length	bifemsh_r.activation	bifemsh_r.fiber_length	sar_r.activation	sar_r.fiber_length	add_long_r.activation	add_long_r.fiber_length	add_brev_r.activation	add_brev_r.fiber_length	add_mag1_r.activation	add_mag1_r.fiber_length	add_mag2_r.activation	add_mag2_r.fiber_length	add_mag3_r.activation	add_mag3_r.fiber_length	tfl_r.activation	tfl_r.fiber_length	pect_r.activation	pect_r.fiber_length	grac_r.activation	grac_r.fiber_length	glut_max1_r.activation	glut_max1_r.fiber_length	glut_max2_r.activation	glut_max2_r.fiber_length	glut_max3_r.activation	glut_max3_r.fiber_length	iliacus_r.activation	iliacus_r.fiber_length	psoas_r.activation	psoas_r.fiber_length	quad_fem_r.activation	quad_fem_r.fiber_length	gem_r.activation	gem_r.fiber_length	peri_r.activation	peri_r.fiber_length	rect_fem_r.activation	rect_fem_r.fiber_length	vas_med_r.activation	vas_med_r.fiber_length	vas_int_r.activation	vas_int_r.fiber_length	vas_lat_r.activation	vas_lat_r.fiber_length	med_gas_r.activation	med_gas_r.fiber_length	lat_gas_r.activation	lat_gas_r.fiber_length	soleus_r.activation	soleus_r.fiber_length	tib_post_r.activation	tib_post_r.fiber_length	flex_dig_r.activation	flex_dig_r.fiber_length	flex_hal_r.activation	flex_hal_r.fiber_length	tib_ant_r.activation	tib_ant_r.fiber_length	per_brev_r.activation	per_brev_r.fiber_length	per_long_r.activation	per_long_r.fiber_length	per_tert_r.activation	per_tert_r.fiber_length	ext_dig_r.activation	ext_dig_r.fiber_length	ext_hal_r.activation	ext_hal_r.fiber_length	ercspn_r.activation	ercspn_r.fiber_length	ercspn_l.activation	ercspn_l.fiber_length	intobl_r.activation	intobl_r.fiber_length	intobl_l.activation	intobl_l.fiber_length	extobl_r.activation	extobl_r.fiber_length	extobl_l.activation	extobl_l.fiber_length
      0.07175990	     30.00000000	      0.00000000	      0.00000000	     -0.00000000	    -13.83558447	      3.04828112	      7.17078323	     -0.42941571	      0.93249164	      0.35877338	     45.29812218	     -6.17862459	    -11.98300043	    -46.70588930	    -46.70588930	     16.35457358	     25.29342774	      0.00001318	     52.13915936	     -0.00000000	     -9.99811353	   -101.98648811	   -101.98648811	      6.49999992	      0.00000000	     -0.00000000	    -15.58108952	     -3.96771953	     -1.33277277	     -0.00000000	     -8.91003344	      0.00000000	     72.06682857	     46.23690339	      0.00000000	      4.87402477	      0.00000000	     -8.91003344	      0.00000000	     72.06682857	     46.23690339	      0.00000000	      4.87402477	     -0.00000000	      0.00000000	      0.00000000	     -0.00000000	     30.92855698	    -99.95684333	   -252.46112787	     -0.17652744	     -1.55370650	      0.53410915	    223.87216509	    178.60575013	     22.81949093	   -382.88776459	   -382.88776459	    136.62199400	    232.29595518	      0.00000000	     -0.00000000	     -0.00000000	      0.00000000	     -0.00000000	      0.00000000	      0.00000000	      0.00000000	     -0.00000000	   -170.85837167	     71.11278384	    267.52348316	      0.00000000	     -0.00000000	      0.00000000	     -0.00000000	     -0.00000000	      0.00000000	      0.00000000	      0.00000000	      0.00000000	      0.00000000	     -0.00000000	     -0.00000000	      0.00000000	     -0.00000000	      0.22898092	      0.05636095	      0.23968283	      0.09529468	      0.35824492	      0.07596377	      0.14525056	      0.07517221	      0.20099449	      0.06451208	      0.34445303	      0.04281050	      0.18072444	      0.07267460	      0.47113144	      0.23958621	      0.33378411	      0.11724632	      0.21984356	      0.16192620	      0.02483623	      0.44155639	      0.02483623	      0.10257172	      0.02483623	      0.12891919	      0.07800573	      0.07924323	      0.11567478	      0.11075410	      0.17967982	      0.14479262	      0.03959267	      0.08720046	      0.02483623	      0.06304750	      0.02483623	      0.34213028	      0.18601148	      0.10591421	      0.19283188	      0.11982380	      0.22298920	      0.14838448	      0.02483623	      0.07964871	      0.02483623	      0.07254181	      0.23366340	      0.04959457	      0.29476159	      0.01943798	      0.50445447	      0.02251762	      0.21218312	      0.10756585	      0.31788587	      0.08848676	      0.37084673	      0.09025954	      0.33071486	      0.08407332	      0.39100983	      0.05499187	      0.38993276	      0.05850955	      0.56086024	      0.05379813	      0.76209794	      0.02802074	      0.76204845	      0.02306673	      0.76216017	      0.03286413	      0.18720467	      0.07954297	      0.77370409	      0.06173245	      0.77376964	      0.05753990	      0.50868258	      0.08286547	      0.50884795	      0.09039664	      0.46960812	      0.09347321	      0.13041182	      0.13408478	      0.19626080	      0.12834539	      0.02483623	      0.09161408	      0.04098296	      0.07977448	      0.11571361	      0.12095422	      0.06743871	      0.10890944
      0.07194003	     30.00000000	      0.00000000	      0.00000000	     -0.00000000	    -13.83000218	      3.03026234	      7.12530868	     -0.42944759	      0.93221195	      0.35886963	     45.33837456	     -6.14640171	    -11.97894387	    -46.77476162	    -46.77476162	     16.37913365	     25.33507406	      0.00001318	     52.13915936	     -0.00000000	     -9.99811353	   -101.98648811	   -101.98648811	      6.49999992	      0.00000000	     -0.00000000	    -15.61190716	     -3.95492649	     -1.28458708	     -0.00000000	     -8.91003344	      0.00000000	     72.06682857	     46.23690339	      0.00000000	      4.87402477	      0.00000000	     -8.91003344	      0.00000000	     72.06682857	     46.23690339	      0.00000000	      4.87402477	     -0.00000000	      0.00000000	      0.00000000	     -0.00000000	     31.04913742	   -100.09877560	   -252.42671824	     -0.17739704	     -1.55165477	      0.53453927	    223.03731177	    179.15270805	     22.22092892	   -381.77903277	   -381.77903277	    136.06308098	    230.11199151	      0.00000000	     -0.00000000	     -0.00000000	      0.00000000	     -0.00000000	      0.00000000	      0.00000000	      0.00000000	     -0.00000000	   -171.29825430	     70.92317296	    267.46502164	      0.00000000	     -0.00000000	      0.00000000	     -0.00000000	     -0.00000000	      0.00000000	      0.00000000	      0.00000000	      0.00000000	      0.00000000	     -0.00000000	     -0.00000000	      0.00000000	     -0.00000000	      0.22865000	      0.05637504	      0.23952046	      0.09532574	      0.35812356	      0.07600312	      0.14497505	      0.07517992	      0.20079920	      0.06452772	      0.34440611	      0.04283467	      0.18052477	      0.07265833	      0.47105028	      0.23956030	      0.33372186	      0.11724275	      0.21963657	      0.16188625	      0.02480038	      0.44150426	      0.02480038	      0.10251879	      0.02480038	      0.12888885	      0.07781707	      0.07923662	      0.11538873	      0.11075930	      0.17941108	      0.14481966	      0.03951823	      0.08718439	      0.02480038	      0.06301308	      0.02480038	      0.34207584	      0.18587328	      0.10595331	      0.19266787	      0.11986484	      0.22261838	      0.14841854	      0.02480038	      0.07959933	      0.02480038	      0.07249283	      0.23331725	      0.04960917	      0.29517965	      0.01945250	      0.50502956	      0.02254389	      0.21235393	      0.10759007	      0.31817458	      0.08853377	      0.37118375	      0.09030819	      0.33102373	      0.08412057	      0.39101802	      0.05498711	      0.38992643	      0.05850424	      0.56135069	      0.05381221	      0.76468875	      0.02801059	      0.76463992	      0.02305377	      0.76475015	      0.03285600	      0.18692660	      0.07946895	      0.77614300	      0.06174423	      0.77620770	      0.05754524	      0.50863334	      0.08286589	      0.50879776	      0.09038157	      0.46958914	      0.09344842	      0.13046561	      0.13408696	      0.19680278	      0.12838248	      0.02480038	      0.09159711	      0.04090472	      0.07973589	      0.11539354	      0.12088056	      0.06735878	      0.10891852
      0.07206685	     30.00000000	      0.00000000	      0.00000000	     -0.00000000	    -13.82605922	      3.01756151	      7.09329734	     -0.42947012	      0.93201526	      0.35893744	     45.36662329	     -6.12365720	    -11.97615230	    -46.82312988	    -46.82312988	     16.39636376	     25.36415744	      0.00001318	     52.13915936	     -0.00000000	     -9.99811353	   -101.98648811	   -101.98648811	      6.49999992	      0.00000000	     -0.00000000	    -15.63365078	     -3.94594058	     -1.25066968	     -0.00000000	     -8.91003344	      0.00000000	     72.06682857	     46.23690339	      0.00000000	      4.87402477	      0.00000000	     -8.91003344	      0.00000000	     72.06682857	     46.23690339	      0.00000000	      4.87402477	     -0.00000000	      0.00000000	      0.00000000	     -0.00000000	     31.13263198	   -100.19782683	   -252.40404136	     -0.17801077	     -1.55021273	      0.53484387	    222.45650378	    179.53633537	     21.80385162	   -381.00754390	   -381.00754390	    135.66098786	    228.53943089	      0.00000000	     -0.00000000	     -0.00000000	      0.00000000	     -0.00000000	      0.00000000	      0.00000000	      0.00000000	     -0.00000000	   -171.60632413	     70.78760257	    267.42492842	      0.00000000	     -0.00000000	      0.00000000	     -0.00000000	     -0.00000000	      0.00000000	      0.00000000	      0.00000000	      0.00000000	      0.00000000	     -0.00000000	     -0.00000000	      0.00000000	     -0.00000000	      0.22841922	      0.05638499	      0.23940653	      0.09534760	      0.35803879	      0.07603080	      0.14478275	      0.07518539	      0.20066328	      0.06453876	      0.34437417	      0.04285170	      0.18038417	      0.07264688	      0.47099291	      0.23954203	      0.33367810	      0.11724022	      0.21949075	      0.16185820	      0.02477520	      0.44146774	      0.02477520	      0.10248148	      0.02477520	      0.12886740	      0.07768462	      0.07923182	      0.11518687	      0.11076287	      0.17922096	      0.14483858	      0.03946593	      0.08717314	      0.02477520	      0.06298882	      0.02477520	      0.34203749	      0.18577578	      0.10598080	      0.19255202	      0.11989368	      0.22235636	      0.14844237	      0.02477520	      0.07956456	      0.02477520	      0.07245834	      0.23307112	      0.04961937	      0.29546519	      0.01946271	      0.50543082	      0.02256238	      0.21247437	      0.10760710	      0.31837765	      0.08856676	      0.37142062	      0.09034235	      0.33124091	      0.08415374	      0.39102271	      0.05498377	      0.38992169	      0.05850050	      0.56169472	      0.05382209	      0.76649220	      0.02800342	      0.76644381	      0.02304462	      0.76655303	      0.03285025	      0.18673063	      0.07941686	      0.77784111	      0.06175252	      0.77790522	      0.05754899	      0.50859884	      0.08286617	      0.50876260	      0.09037101	      0.46957585	      0.09343107	      0.13050727	      0.13408853	      0.19718300	      0.12840861	      0.02477520	      0.09158515	      0.04084977	      0.07970867	      0.11516892	      0.12082885	      0.06730217	      0.10892486
      0.07219367	     30.00000000	      0.00000000	      0.00000000	     -0.00000000	    -13.82210574	      3.00484817	      7.06128880	     -0.42949274	      0.93181875	      0.35900529	     45.39479872	     -6.10086412	    -11.97341330	    -46.87140078	    -46.87140078	     16.41354309	     25.39304331	      0.00001318	     52.13915936	     -0.00000000	     -9.99811353	   -101.98648811	   -101.98648811	      6.49999992	      0.00000000	     -0.00000000	    -15.65543338	     -3.93697197	     -1.21675731	     -0.00000000	     -8.91003344	      0.00000000	     72.06682857	     46.23690339	      0.00000000	      4.87402477	      0.00000000	     -8.91003344	      0.00000000	     72.06682857	     46.23690339	      0.00000000	      4.87402477	     -0.00000000	      0.00000000	      0.00000000	     -0.00000000	     31.21497872	   -100.29616294	   -252.38262392	     -0.17862571	     -1.54877269	      0.53514985	    221.88133277	    179.91874050	     21.39197053	   -380.24340570	   -380.24340570	    135.26362759	    227.00395252	      0.00000000	     -0.00000000	     -0.00000000	      0.00000000	     -0.00000000	      0.00000000	      0.00000000	      0.00000000	     -0.00000000	   -171.91305701	     70.65033292	    267.38569315	      0.00000000	     -0.00000000	      0.00000000	     -0.00000000	     -0.00000000	      0.00000000	      0.00000000	      0.00000000	      0.00000000	      0.00000000	     -0.00000000	     -0.00000000	      0.00000000	     -0.00000000	      0.22819022	      0.05639497	      0.23929293	      0.09536947	      0.35795458	      0.07605846	      0.14459180	      0.07519090	      0.20052867	      0.06454983	      0.34434312	      0.04286875	      0.18024353	      0.07263544	      0.47093536	      0.23952376	      0.33363439	      0.11723768	      0.21934485	      0.16183022	      0.02475006	      0.44143136	      0.02475006	      0.10244413	      0.02475006	      0.12884590	      0.07755247	      0.07922689	      0.11498462	      0.11076637	      0.17903010	      0.14485740	      0.03941374	      0.08716195	      0.02475006	      0.06296454	      0.02475006	      0.34199911	      0.18567813	      0.10600826	      0.19243584	      0.11992246	      0.22209355	      0.14846609	      0.02475006	      0.07952979	      0.02475006	      0.07242386	      0.23282302	      0.04962949	      0.29574364	      0.01947291	      0.50582915	      0.02258088	      0.21259495	      0.10762412	      0.31858057	      0.08859968	      0.37165717	      0.09037642	      0.33145788	      0.08418682	      0.39102652	      0.05498044	      0.38991671	      0.05849677	      0.56203774	      0.05383196	      0.76827891	      0.02799625	      0.76823097	      0.02303545	      0.76833917	      0.03284447	      0.18653448	      0.07936478	      0.77952378	      0.06176081	      0.77958731	      0.05755273	      0.50856448	      0.08286644	      0.50872757	      0.09036050	      0.46956260	      0.09341381	      0.13055199	      0.13409014	      0.19756211	      0.12843475	      0.02475006	      0.09157319	      0.04079493	      0.07968139	      0.11494489	      0.12077728	      0.06724529	      0.10893118
